<svg width="17" height="17" viewBox="0 0 17 17" fill="none" xmlns="http://www.w3.org/2000/svg">
<path d="M8.5 1C7.01664 1 5.56659 1.43987 4.33323 2.26398C3.09986 3.08809 2.13856 4.25943 1.57091 5.62987C1.00325 7.00032 0.854725 8.50832 1.14411 9.96318C1.4335 11.418 2.14781 12.7544 3.1967 13.8033C4.2456 14.8522 5.58197 15.5665 7.03682 15.8559C8.49168 16.1453 9.99968 15.9968 11.3701 15.4291C12.7406 14.8614 13.9119 13.9001 14.736 12.6668C15.5601 11.4334 16 9.98336 16 8.5C16 6.51088 15.2098 4.60322 13.8033 3.1967C12.3968 1.79018 10.4891 1 8.5 1ZM4.06818 8.5C4.06818 8.68083 3.99635 8.85425 3.86848 8.98212C3.74062 9.10998 3.5672 9.18182 3.38637 9.18182C3.20554 9.18182 3.03211 9.10998 2.90425 8.98212C2.77638 8.85425 2.70455 8.68083 2.70455 8.5C2.70635 6.9635 3.31752 5.49045 4.40399 4.40399C5.49046 3.31752 6.96351 2.70635 8.5 2.70455C8.68083 2.70455 8.85425 2.77638 8.98212 2.90425C9.10999 3.03211 9.18182 3.20553 9.18182 3.38636C9.18182 3.56719 9.10999 3.74062 8.98212 3.86848C8.85425 3.99635 8.68083 4.06818 8.5 4.06818C7.32516 4.06998 6.19896 4.53749 5.36823 5.36822C4.53749 6.19896 4.06999 7.32516 4.06818 8.5ZM5.77273 8.5C5.77273 7.9606 5.93268 7.43331 6.23236 6.98481C6.53203 6.53631 6.95798 6.18675 7.45632 5.98033C7.95466 5.77391 8.50303 5.7199 9.03207 5.82513C9.5611 5.93036 10.0471 6.19011 10.4285 6.57153C10.8099 6.95294 11.0696 7.4389 11.1749 7.96793C11.2801 8.49697 11.2261 9.04534 11.0197 9.54368C10.8133 10.042 10.4637 10.468 10.0152 10.7676C9.56669 11.0673 9.0394 11.2273 8.5 11.2273C7.77668 11.2273 7.08299 10.9399 6.57153 10.4285C6.06007 9.91701 5.77273 9.22332 5.77273 8.5ZM8.5 14.2955C8.31917 14.2955 8.14575 14.2236 8.01788 14.0958C7.89002 13.9679 7.81818 13.7945 7.81818 13.6136C7.81818 13.4328 7.89002 13.2594 8.01788 13.1315C8.14575 13.0036 8.31917 12.9318 8.5 12.9318C9.67484 12.93 10.801 12.4625 11.6318 11.6318C12.4625 10.801 12.93 9.67484 12.9318 8.5C12.9318 8.31917 13.0037 8.14575 13.1315 8.01788C13.2594 7.89002 13.4328 7.81818 13.6136 7.81818C13.7945 7.81818 13.9679 7.89002 14.0958 8.01788C14.2236 8.14575 14.2955 8.31917 14.2955 8.5C14.2937 10.0365 13.6825 11.5095 12.596 12.596C11.5095 13.6825 10.0365 14.2936 8.5 14.2955Z" fill="#374151"/>
</svg> 
