<svg width="16" height="17" viewBox="0 0 16 17" fill="none" xmlns="http://www.w3.org/2000/svg">
<g clip-path="url(#clip0_2068_5142)">
<path d="M4 8.89033C4 7.757 4.46667 6.757 5.2 6.09033M12 8.8903C12 10.0236 11.5333 11.0236 10.8 11.6903M14.6667 8.8903C14.6667 12.5722 11.6819 15.557 8 15.557C4.3181 15.557 1.33333 12.5722 1.33333 8.8903C1.33333 5.2084 4.3181 2.22363 8 2.22363C11.6819 2.22363 14.6667 5.2084 14.6667 8.8903ZM9.33333 8.8903C9.33333 9.62668 8.73638 10.2236 8 10.2236C7.26362 10.2236 6.66667 9.62668 6.66667 8.8903C6.66667 8.15392 7.26362 7.55697 8 7.55697C8.73638 7.55697 9.33333 8.15392 9.33333 8.8903Z" stroke="#111827" stroke-width="1.33" stroke-linecap="round" stroke-linejoin="round"/>
</g>
<defs>
<clipPath id="clip0_2068_5142">
<rect width="16" height="16" fill="white" transform="translate(0 0.890137)"/>
</clipPath>
</defs>
</svg>
