<svg width="19" height="20" viewBox="0 0 19 20" fill="none" xmlns="http://www.w3.org/2000/svg">
  <path
    d="M15.895 8.32349C15.6644 8.32349 15.4433 8.41983 15.2803 8.59132C15.1173 8.76281 15.0257 8.9954 15.0257 9.23792V10.1524C15.0257 11.365 14.5678 12.5279 13.7527 13.3854C12.9375 14.2428 11.832 14.7246 10.6793 14.7246H7.20216C6.04942 14.7246 4.94389 14.2428 4.12878 13.3854C3.31367 12.5279 2.85575 11.365 2.85575 10.1524V9.23792C2.85575 8.9954 2.76416 8.76281 2.60114 8.59132C2.43812 8.41983 2.21702 8.32349 1.98647 8.32349C1.75592 8.32349 1.53482 8.41983 1.37179 8.59132C1.20877 8.76281 1.11719 8.9954 1.11719 9.23792V10.1524C1.11719 11.85 1.75828 13.4782 2.89943 14.6786C4.04059 15.879 5.58832 16.5534 7.20216 16.5534H8.07144V17.4679C8.07144 17.7104 8.16302 17.943 8.32604 18.1145C8.48906 18.286 8.71017 18.3823 8.94072 18.3823C9.17126 18.3823 9.39237 18.286 9.55539 18.1145C9.71841 17.943 9.81 17.7104 9.81 17.4679V16.5534H10.6793C12.2931 16.5534 13.8408 15.879 14.982 14.6786C16.1232 13.4782 16.7642 11.85 16.7642 10.1524V9.23792C16.7642 8.9954 16.6727 8.76281 16.5096 8.59132C16.3466 8.41983 16.1255 8.32349 15.895 8.32349Z"
    fill="#374151" />
  <path
    d="M10.7295 9.52104C10.7295 9.28814 10.8237 9.06478 10.9914 8.90009C11.1591 8.73541 11.3865 8.64289 11.6236 8.64289H13.4119V6.88658H11.6236C11.3865 6.88658 11.1591 6.79406 10.9914 6.62938C10.8237 6.46469 10.7295 6.24133 10.7295 6.00843C10.7295 5.77553 10.8237 5.55217 10.9914 5.38749C11.1591 5.2228 11.3865 5.13028 11.6236 5.13028H13.4119C13.4119 4.19868 13.0351 3.30524 12.3644 2.64649C11.6936 1.98775 10.7839 1.61768 9.83541 1.61768H8.04717C7.09863 1.61768 6.18895 1.98775 5.51823 2.64649C4.84751 3.30524 4.4707 4.19868 4.4707 5.13028V10.3992C4.4707 11.3308 4.84751 12.2242 5.51823 12.883C6.18895 13.5417 7.09863 13.9118 8.04717 13.9118H9.83541C10.7839 13.9118 11.6936 13.5417 12.3644 12.883C13.0351 12.2242 13.4119 11.3308 13.4119 10.3992H11.6236C11.3865 10.3992 11.1591 10.3067 10.9914 10.142C10.8237 9.9773 10.7295 9.75394 10.7295 9.52104Z"
    fill="#374151" />
</svg>