<svg width="16" height="17" viewBox="0 0 16 17" fill="none" xmlns="http://www.w3.org/2000/svg">
<g clip-path="url(#clip0_2068_5147)">
<path d="M7.33339 5.95768L3.33739 11.4177C3.24337 11.5461 3.1984 11.704 3.21063 11.8627C3.22286 12.0214 3.29147 12.1705 3.40406 12.283L3.94873 12.8283C4.06296 12.9425 4.21472 13.0112 4.37583 13.0219C4.53694 13.0326 4.69645 12.9844 4.82473 12.8863L10.0601 8.89035M10.9999 15.0063C10.3332 14.557 9.58119 14.2236 8.66653 14.2236C7.29453 14.2236 6.04786 15.7943 4.66653 15.557C3.2852 15.3196 2.81653 13.311 3.66653 12.557M14 5.55697C14 7.39792 12.5076 8.8903 10.6667 8.8903C8.82572 8.8903 7.33333 7.39792 7.33333 5.55697C7.33333 3.71602 8.82572 2.22363 10.6667 2.22363C12.5076 2.22363 14 3.71602 14 5.55697Z" stroke="#111827" stroke-width="1.33" stroke-linecap="round" stroke-linejoin="round"/>
</g>
<defs>
<clipPath id="clip0_2068_5147">
<rect width="16" height="16" fill="white" transform="translate(0 0.890137)"/>
</clipPath>
</defs>
</svg>
