<svg width="16" height="17" viewBox="0 0 16 17" fill="none" xmlns="http://www.w3.org/2000/svg">
<g id="Icon / ListMusic">
<path id="Vector" d="M14 10.5V4.5M8 8.5H2M10.6667 4.5H2M8 12.5H2M12.3333 12.5C12.7754 12.5 13.1993 12.3244 13.5118 12.0118C13.8244 11.6993 14 11.2754 14 10.8333C14 10.3913 13.8244 9.96738 13.5118 9.65482C13.1993 9.34226 12.7754 9.16667 12.3333 9.16667C11.8913 9.16667 11.4674 9.34226 11.1548 9.65482C10.8423 9.96738 10.6667 10.3913 10.6667 10.8333C10.6667 11.2754 10.8423 11.6993 11.1548 12.0118C11.4674 12.3244 11.8913 12.5 12.3333 12.5Z" stroke="#111827" stroke-width="1.33" stroke-linecap="round" stroke-linejoin="round"/>
</g>
</svg>
