<svg width="80" height="63" viewBox="0 0 80 63" fill="none" xmlns="http://www.w3.org/2000/svg">
<g id="Group 64">
<g id="Group">
<g id="Group_2">
<path id="Vector" d="M39.9986 0C17.8896 0 0.000244141 18.789 0.000244141 41.9989H9.14271C9.14271 24.8899 22.9883 10.9639 39.9986 10.9639C57.0088 10.9639 70.8544 24.8899 70.8544 41.9989H79.9969C79.9969 18.789 62.1075 0 39.9986 0Z" fill="#030712"/>
<path id="Vector_2" d="M39.9969 23.1215C29.6673 23.1215 21.2717 31.5654 21.2717 41.9546H31.4255C31.4255 37.18 35.2497 33.3338 39.9969 33.3338C44.7442 33.3338 48.5683 37.18 48.5683 41.9546H58.7221C58.7661 31.6097 50.3265 23.1215 39.9969 23.1215Z" fill="#030712"/>
<path id="Vector_3" d="M39.997 11.848C23.47 11.848 10.0198 25.3761 10.0198 41.9988H20.3931C20.3931 31.1233 29.1841 22.2814 39.997 22.2814C50.8099 22.2814 59.6009 31.1233 59.6009 41.9988H69.9742C69.9742 25.3761 56.524 11.848 39.997 11.848Z" fill="#030712"/>
</g>
<path id="Vector_4" d="M37.3627 41.9989C37.3627 40.6726 38.4616 39.5674 39.7802 39.5674C41.0989 39.5674 42.1978 40.6726 42.1978 41.9989" fill="#030712"/>
</g>
<g id="Group_3">
<path id="Vector_5" d="M10.9894 61.9922L7.78064 49.3041H7.64877V61.9922H3.20923V43.999H10.6817L13.3191 55.3166H13.407L15.9564 43.999H23.2531V62.0364H18.418V49.3484H18.2861L15.0773 62.0364H10.9894V61.9922Z" fill="#030712"/>
<path id="Vector_6" d="M25.8918 54.8303V43.999H30.683V54.0788C30.683 56.8197 31.5181 58.2786 34.0236 58.2786C36.5291 58.2786 37.3643 56.8197 37.3643 54.0788V43.999H42.1994V54.8745C42.1994 60.1354 38.639 62.3901 34.0236 62.3901C29.4083 62.3459 25.8918 60.1354 25.8918 54.8303Z" fill="#030712"/>
<path id="Vector_7" d="M59.472 58.0134V62.0364H44.2632V58.3671L53.0984 47.9779H44.3512V43.999H59.2522V47.7568L50.3731 58.0134H59.472Z" fill="#030712"/>
<path id="Vector_8" d="M72.8793 43.999L80.0001 62.0364H74.8573L73.5386 58.5439H66.5496L65.231 62.0364H60.3519L67.4727 43.999H72.8793ZM67.9123 54.8745H72.132L70.0661 49.5694H69.9342L67.9123 54.8745Z" fill="#030712"/>
</g>
</g>
</svg>
