<svg width="16" height="17" viewBox="0 0 16 17" fill="none" xmlns="http://www.w3.org/2000/svg">
<path d="M14 10.8901V4.89014M8 8.89014H2M10.6667 4.89014H2M8 12.8901H2M12.3333 12.8901C12.7754 12.8901 13.1993 12.7145 13.5118 12.402C13.8244 12.0894 14 11.6655 14 11.2235C14 10.7814 13.8244 10.3575 13.5118 10.045C13.1993 9.7324 12.7754 9.5568 12.3333 9.5568C11.8913 9.5568 11.4674 9.7324 11.1548 10.045C10.8423 10.3575 10.6667 10.7814 10.6667 11.2235C10.6667 11.6655 10.8423 12.0894 11.1548 12.402C11.4674 12.7145 11.8913 12.8901 12.3333 12.8901Z" stroke="#111827" stroke-width="1.33" stroke-linecap="round" stroke-linejoin="round"/>
</svg>
